<?xml version="1.0" encoding="UTF-8"?>
<svg width="18px" height="10px" viewBox="0 0 18 10" version="1.1" xmlns="http://www.w3.org/2000/svg" xmlns:xlink="http://www.w3.org/1999/xlink">
    <title>Fill 1备份 3</title>
    <g id="采样-" stroke="none" stroke-width="1" fill="none" fill-rule="evenodd">
        <g id="4-1板装-采集详情" transform="translate(-661.000000, -1153.000000)" fill="#666666">
            <g id="Fill-1备份-3" transform="translate(661.000000, 1153.000000)">
                <path d="M4.92204348,14 C4.68303121,14 4.44401895,13.9062159 4.26363233,13.7204687 C3.90736876,13.353527 3.91278036,12.7644171 4.27625939,12.403849 L11.7605001,5.00036733 L4.27625939,-2.4040249 C3.91278036,-2.76368242 3.90736876,-3.35370285 4.26363233,-3.72064457 C4.6198959,-4.08758629 5.2034466,-4.09395997 5.56782757,-3.73430245 L13.7231065,4.33568382 C13.9007874,4.51050469 14,4.74997286 14,5.00036733 C14,5.25076181 13.9007874,5.48931945 13.7231065,5.66505085 L5.56782757,13.7341266 C5.38834289,13.911679 5.15474222,14 4.92204348,14" id="Fill-1备份-2" transform="translate(9.000000, 5.000000) rotate(90.000000) translate(-9.000000, -5.000000) "></path>
            </g>
        </g>
    </g>
</svg>