<?xml version="1.0" encoding="UTF-8"?>
<svg width="48px" height="48px" viewBox="0 0 48 48" version="1.1" xmlns="http://www.w3.org/2000/svg" xmlns:xlink="http://www.w3.org/1999/xlink">
    <title>审核中</title>
    <defs>
        <polygon id="path-1" points="0 0 24 0 24 26 0 26"></polygon>
        <polygon id="path-3" points="0 0 14 0 14 14 0 14"></polygon>
    </defs>
    <g id="页面-1" stroke="none" stroke-width="1" fill="none" fill-rule="evenodd">
        <g id="1-1首页备份" transform="translate(-530.000000, -1100.000000)">
            <g id="审核中" transform="translate(530.000000, 1100.000000)">
                <circle id="椭圆形" fill="#127EFC" cx="24" cy="24" r="24"></circle>
                <g id="编组" transform="translate(12.000000, 9.000000)">
                    <mask id="mask-2" fill="white">
                        <use xlink:href="#path-1"></use>
                    </mask>
                    <g id="Clip-2"></g>
                    <path d="M20.8657891,14.3981071 C20.8657891,14.9074549 20.4387782,15.3239467 19.9170529,15.3239467 C19.6798688,15.3239467 19.49044,15.2318678 19.3006131,15.0923897 C17.6411207,13.7500583 15.5546174,12.9629198 13.2778893,12.9629198 L11.3812129,12.9629198 C6.16475566,12.9629198 1.89703463,17.1301692 1.89703463,22.2224812 C1.89703463,22.7314405 2.32364755,23.1483208 2.84537286,23.1483208 L10.4328746,23.1483208 C10.954202,23.1483208 11.3812129,23.5648127 11.3812129,24.0745489 C11.3812129,24.5835082 10.954202,25 10.4328746,25 L2.84537286,25 C1.28019692,25 -3.97959811e-05,23.7505245 -3.97959811e-05,22.2224812 C-3.97959811e-05,17.1760144 3.46181261,12.9166861 8.20390174,11.5743547 C6.68648097,10.3703358 5.69078552,8.56489036 5.69078552,6.48126564 C5.69078552,2.91660839 8.67826983,0 12.3299491,0 C15.9812303,0 18.9687147,2.91660839 18.9687147,6.48126564 C18.9687147,8.51826814 17.9730192,10.3703358 16.4555984,11.5743547 C17.925662,12.0370802 19.2532559,12.7313628 20.4387782,13.6575909 C20.6759623,13.8429142 20.8657891,14.1203164 20.8657891,14.3981071 Z M12.3299491,11.3701407 C14.9377797,11.3701407 17.0720382,9.24680118 17.0720382,6.65191636 C17.0720382,4.05742747 14.9377797,1.93408794 12.3299491,1.93408794 C9.7213225,1.93408794 7.58746199,4.05742747 7.58746199,6.65191636 C7.58746199,9.24680118 9.67396528,11.3701407 12.3299491,11.3701407 L12.3299491,11.3701407 Z" id="Fill-1" fill="#FFFFFF" mask="url(#mask-2)"></path>
                </g>
                <g id="编组" transform="translate(25.000000, 26.000000)">
                    <path d="M7.72973212,6.27866655 L7.72973212,3.87451962 C7.72973212,3.62829565 7.64883741,3.40977746 7.48660596,3.2457771 C7.3243745,3.08222361 7.10821324,3 6.86464504,3 C6.64848378,3 6.40535762,3.08222361 6.24312616,3.2457771 C6.0808947,3.40977746 6,3.62829565 6,3.87451962 L6,7.15318616 C6,7.20770399 6,7.26222183 6.0269649,7.31673966 L6.0269649,7.34444544 C6.0269649,7.39896327 6.0539298,7.42577532 6.0808947,7.48074001 C6.13482451,7.59066941 6.18919636,7.67199929 6.27009106,7.7542229 C6.43232252,7.91822325 6.64848378,8 6.89205198,8 L10.135355,8 C10.6216073,8 11,7.61748146 11,7.12592725 C10.9730351,6.66073823 10.5676775,6.27866655 10.107948,6.27866655 L7.72973212,6.27866655 Z" id="Fill-1" fill="#FFFFFF"></path>
                    <g>
                        <mask id="mask-4" fill="white">
                            <use xlink:href="#path-3"></use>
                        </mask>
                        <g id="Clip-4"></g>
                        <path d="M7.00154318,12.2501118 C4.10260998,12.2501118 1.75027397,9.89829426 1.75027397,7 C1.75027397,4.10170574 4.10260998,1.7503354 7.00154318,1.7503354 C9.90047637,1.7503354 12.2523651,4.10170574 12.2523651,7 C12.22508,9.89829426 9.90047637,12.2223855 7.00154318,12.2501118 M11.9513341,2.05085287 C10.6389641,0.73877212 8.86095766,0 7.00154318,0 C5.14168139,0 3.36412229,0.73877212 2.05175229,2.05085287 C0.738487688,3.36338082 0,5.14099534 0,7 C0,8.85945186 0.738487688,10.6366192 2.05175229,11.9491471 C3.36412229,13.2616751 5.14168139,14 7.00154318,14 C8.86095766,14 10.6389641,13.2616751 11.9513341,11.9491471 C13.2641514,10.6366192 14.0026391,8.85945186 14.0026391,7 C14.0026391,5.14099534 13.2641514,3.36338082 11.9513341,2.05085287" id="Fill-3" fill="#FFFFFF" mask="url(#mask-4)"></path>
                    </g>
                </g>
            </g>
        </g>
    </g>
</svg>