<?xml version="1.0" encoding="UTF-8"?>
<svg width="30px" height="32px" viewBox="0 0 30 32" version="1.1" xmlns="http://www.w3.org/2000/svg" xmlns:xlink="http://www.w3.org/1999/xlink">
    <title>编组 2备份</title>
    <defs>
        <polygon id="path-1" points="0 0 30 0 30 31.9967231 0 31.9967231"></polygon>
    </defs>
    <g id="我的" stroke="none" stroke-width="1" fill="none" fill-rule="evenodd">
        <g id="6-1我的" transform="translate(-81.000000, -980.000000)">
            <g id="编组-2备份" transform="translate(81.000000, 980.000000)">
                <g id="编组">
                    <g transform="translate(0.000000, 0.003277)">
                        <mask id="mask-2" fill="white">
                            <use xlink:href="#path-1"></use>
                        </mask>
                        <g id="Clip-4"></g>
                        <path d="M27.7726202,31.9967231 L2.21829797,31.9967231 C0.992249386,31.9967231 -0.00500665614,31.0073353 -0.00500665614,29.7937398 L-0.00500665614,2.20298333 C-0.00500665614,0.988238084 0.992249386,0 2.21829797,0 L21.4164956,0 C22.0562997,0 22.573266,0.509928552 22.573266,1.14230894 C22.573266,1.77468933 22.0562997,2.28461789 21.4164956,2.28461789 L2.30853421,2.28461789 L2.30853421,29.7149797 L27.685877,29.7149797 L27.685877,9.15744296 C27.685877,8.52563746 28.2028433,8.01513401 28.8426474,8.01513401 C29.4830336,8.01513401 30,8.52563746 30,9.15744296 L30,29.7937398 C30,31.0073353 29.0015796,31.9967231 27.7726202,31.9967231" id="Fill-3" fill="#333333" mask="url(#mask-2)"></path>
                    </g>
                    <path d="M28.8246584,10.267558 L21.8974256,10.267558 C20.6207283,10.267558 19.5833026,9.24310175 19.5833026,7.98236521 L19.5833026,1.14230894 C19.5833026,0.509928552 20.100269,0 20.740073,0 C21.3804593,0 21.8974256,0.509928552 21.8974256,1.14230894 L21.8974256,7.97949075 L21.9009187,7.98236521 L28.8246584,7.98236521 C29.4644624,7.98236521 29.9814288,8.49344354 29.9814288,9.12524904 C29.9814288,9.75705454 29.4644624,10.267558 28.8246584,10.267558" id="Fill-5" fill="#333333"></path>
                    <path d="M28.8354867,10.3034887 C28.5205331,10.3034887 28.2061617,10.1781624 27.9785335,9.92865959 L20.6752194,1.99516013 C20.2449963,1.52719864 20.2810908,0.806284999 20.7549766,0.381440354 C21.2288624,-0.0434042905 21.9589027,-0.00776103207 22.3891259,0.460200457 L29.6924399,8.39312502 C30.1226631,8.86108651 30.0865686,9.58200015 29.6126828,10.0068448 C29.3926228,10.2034576 29.1137636,10.3034887 28.8354867,10.3034887" id="Fill-7" fill="#333333"></path>
                </g>
                <rect id="矩形" fill="#00BF7E" x="7" y="13.5757576" width="16" height="1.93939394" rx="0.96969697"></rect>
                <rect id="矩形备份" fill="#00BF7E" x="7" y="18.4242424" width="16" height="1.93939394" rx="0.96969697"></rect>
                <rect id="矩形备份-2" fill="#00BF7E" x="7" y="23.2727273" width="16" height="1.93939394" rx="0.96969697"></rect>
            </g>
        </g>
    </g>
</svg>