<?xml version="1.0" encoding="UTF-8"?>
<svg width="48px" height="48px" viewBox="0 0 48 48" version="1.1" xmlns="http://www.w3.org/2000/svg" xmlns:xlink="http://www.w3.org/1999/xlink">
    <title>待审核</title>
    <defs>
        <polygon id="path-1" points="0 0 24 0 24 14.5679186 0 14.5679186"></polygon>
    </defs>
    <g id="页面-1" stroke="none" stroke-width="1" fill="none" fill-rule="evenodd">
        <g id="1-1首页备份" transform="translate(-528.000000, -891.000000)">
            <g id="待审核" transform="translate(528.000000, 891.000000)">
                <circle id="椭圆形备份-5" fill="#CCCCCC" cx="24" cy="24" r="24"></circle>
                <g id="编组备份-2" transform="translate(12.000000, 12.000000)">
                    <g id="编组" transform="translate(0.000000, 9.432081)">
                        <mask id="mask-2" fill="white">
                            <use xlink:href="#path-1"></use>
                        </mask>
                        <g id="Clip-2"></g>
                        <path d="M22.4077597,12.3994704 C22.4077597,12.7178222 22.1469915,12.9778842 21.8285435,12.9778842 L2.16420338,12.9778842 C1.84575532,12.9778842 1.58498712,12.7178222 1.58498712,12.3994704 L1.58498712,9.14972978 C1.58498712,8.8317229 1.84575532,8.57166087 2.16420338,8.57166087 L21.8285435,8.57166087 C22.1469915,8.57166087 22.4077597,8.8317229 22.4077597,9.14972978 L22.4077597,12.3994704 Z M19.9033488,6.98438575 L0.574726208,6.98438575 C0.255932764,6.98438575 -0.0044900485,7.24479268 -0.0044900485,7.56279956 L-0.0044900485,13.9895048 C-0.0044900485,14.3078566 0.255932764,14.5679186 0.574726208,14.5679186 L23.4211291,14.5679186 C23.7392318,14.5679186 24,14.3078566 24,13.9895048 L24,7.56279956 C24,7.24479268 23.7392318,6.98438575 23.4211291,6.98438575 L19.9033488,6.98438575 Z M10.0943198,0.811534176 C10.1029545,0.797047962 10.0970829,0.779802469 10.0825766,0.773939002 L8.74488753,0.0165169732 C8.73038122,0.00754931712 8.71311181,0.0106535058 8.7072402,0.0251397194 L4.70039,6.95851751 C4.69175529,6.97300372 4.70039,6.98438575 4.71455092,6.98438575 L6.49813634,6.98438575 C6.51264265,6.98438575 6.53302056,6.97300372 6.54165527,6.95851751 L10.0943198,0.811534176 Z M17.468361,6.95851751 C17.4769957,6.97300372 17.4973736,6.98438575 17.5118799,6.98438575 L19.2954653,6.98438575 C19.3096263,6.98438575 19.3186064,6.97300372 19.3096263,6.95851751 L15.2969045,0.0134127846 C15.2882697,-0.00072851926 15.2706549,-0.0038327079 15.2592571,0.00479003833 L13.9243312,0.768075535 C13.9101702,0.773939002 13.9042986,0.791184494 13.9129334,0.806015618 L17.468361,6.95851751 Z" id="Fill-1" fill="#FFFFFF" mask="url(#mask-2)"></path>
                    </g>
                    <path d="M8.29035647,5.28229434 C8.29035647,3.23801366 9.9492567,1.58175657 11.9963734,1.58175657 C14.0431448,1.58175657 15.702045,3.23801366 15.702045,5.28229434 C15.702045,7.32623011 14.0431448,8.98283211 11.9963734,8.98283211 C9.9492567,8.98283211 8.29035647,7.32623011 8.29035647,5.28229434 M11.9963734,10.5642438 C12.6650453,10.5642438 13.307813,10.4400762 13.8956639,10.2117459 C14.3992401,10.0179066 14.8655144,9.7492218 15.279635,9.42259217 C16.5012736,8.4537404 17.2832353,6.95890112 17.2832353,5.28229434 C17.2859959,2.36504684 14.9176681,0 11.9963734,0 C9.07507879,0 6.7067509,2.36504684 6.7067509,5.28229434 C6.7067509,6.96476458 7.49423633,8.46270806 8.7220919,9.43121492 C9.13897564,9.75818945 9.60490451,10.0268742 10.1088261,10.2176094 C10.6963317,10.4400762 11.3335732,10.5642438 11.9963734,10.5642438" id="Fill-3" fill="#FFFFFF"></path>
                </g>
            </g>
        </g>
    </g>
</svg>