<?xml version="1.0" encoding="UTF-8"?>
<svg width="80px" height="80px" viewBox="0 0 80 80" version="1.1" xmlns="http://www.w3.org/2000/svg" xmlns:xlink="http://www.w3.org/1999/xlink">
    <title>编组 8</title>
    <g id="我的" stroke="none" stroke-width="1" fill="none" fill-rule="evenodd">
        <g id="6-1我的" transform="translate(-72.000000, -432.000000)">
            <g id="编组-8" transform="translate(72.000000, 432.000000)">
                <circle id="椭圆形备份-2" fill="#ECFBF8" cx="40" cy="40" r="40"></circle>
                <g id="编组备份" transform="translate(24.000000, 24.000000)">
                    <path d="M22.8476956,33 L5.14913373,33 C2.30506171,33 0,30.6877767 0,27.8387873 L0,5.15803657 C0,2.30904716 2.30506171,0 5.14913373,0 L22.8476956,0 C24.2142453,0 25.5237232,0.543118383 26.4876005,1.51183831 C27.4546484,2.48055823 28,3.79230029 28,5.15803657 L28,27.8387873 C28,30.6877767 25.6917676,33 22.8476956,33" id="Fill-1" fill="#66D1C1"></path>
                    <g id="编组" transform="translate(6.000000, 6.000000)">
                        <path d="M7.53295784,16.1742402 L1.56688035,16.1742402 C0.700229095,16.1742402 0,15.4411209 0,14.5450862 C0,13.6457933 0.700229095,12.9159323 1.56688035,12.9159323 L7.53295784,12.9159323 C8.39960909,12.9159323 9.10297823,13.6457933 9.10297823,14.5450862 C9.10297823,15.4411209 8.39960909,16.1742402 7.53295784,16.1742402 M14.0234221,9.7130157 L1.57316043,9.7130157 C0.703369135,9.7130157 0.00314004078,8.98315474 0.00314004078,8.08386177 C0.00314004078,7.18456881 0.703369135,6.45796616 1.57316043,6.45796616 L14.0234221,6.45796616 C14.8900734,6.45796616 15.5934425,7.18456881 15.5934425,8.08386177 C15.5934425,8.98315474 14.8900734,9.7130157 14.0234221,9.7130157 M14.0234221,3.25830785 L1.57316043,3.25830785 C0.703369135,3.25830785 0.00314004078,2.5317052 0.00314004078,1.62915392 C0.00314004078,0.729860958 0.703369135,0 1.57316043,0 L14.0234221,0 C14.8900734,0 15.5934425,0.729860958 15.5934425,1.62915392 C15.5934425,2.5317052 14.8900734,3.25830785 14.0234221,3.25830785" id="Fill-3" fill="#FFFFFF"></path>
                        <path d="M14.93905,26.4262687 C17.6583253,27.5927429 20.7858059,26.9475979 22.870793,24.7905981 C24.9495,22.63034 25.571228,19.3785488 24.4470934,16.5568542 C23.3198188,13.7351596 20.6664843,11.897474 17.7211261,11.897474 C13.7050139,11.897474 10.4456516,15.2795975 10.4456516,19.4469733 C10.4456516,22.5000077 12.2166346,25.2565362 14.93905,26.4262687 Z" id="Fill-5" fill="#ECFBF8"></path>
                    </g>
                    <path d="M26.4649123,28 L22.5350877,28 C22.1267544,28 21.7368421,27.8297474 21.4482456,27.5219832 C21.1596491,27.217493 21,26.7984097 21,26.3662301 L21,22.637044 C21,21.7333957 21.6846491,21 22.5350877,21 C23.3824561,21 24.0671053,21.7333957 24.0671053,22.637044 L24.0671053,24.7291862 L26.4649123,24.7291862 C27.3122807,24.7291862 28,25.4625819 28,26.3662301 C28,27.2666043 27.3122807,28 26.4649123,28" id="Fill-7" fill="#66D1C1"></path>
                </g>
            </g>
        </g>
    </g>
</svg>
