<?xml version="1.0" encoding="UTF-8"?>
<svg width="48px" height="48px" viewBox="0 0 48 48" version="1.1" xmlns="http://www.w3.org/2000/svg" xmlns:xlink="http://www.w3.org/1999/xlink">
    <title>编组 23备份 2</title>
    <defs>
        <polygon id="path-1" points="0 0 24 0 24 26 0 26"></polygon>
    </defs>
    <g id="页面-1" stroke="none" stroke-width="1" fill="none" fill-rule="evenodd">
        <g id="1-1首页备份" transform="translate(-663.000000, -884.000000)">
            <g id="编组-23备份-2" transform="translate(663.000000, 884.000000)">
                <g id="审核中">
                    <circle id="椭圆形" fill="#F85F6F" cx="24" cy="24" r="24"></circle>
                    <g id="编组" transform="translate(12.000000, 11.000000)">
                        <mask id="mask-2" fill="white">
                            <use xlink:href="#path-1"></use>
                        </mask>
                        <g id="Clip-2"></g>
                        <path d="M20.4387782,13.6575909 C20.6759623,13.8429142 20.8657891,14.1203164 20.8657891,14.3981071 C20.8657891,14.9074549 20.4387782,15.3239467 19.9170529,15.3239467 C19.6798688,15.3239467 19.49044,15.2318678 19.3006131,15.0923897 C17.6411207,13.7500583 15.5546174,12.9629198 13.2778893,12.9629198 L11.3812129,12.9629198 C6.16475566,12.9629198 1.89703463,17.1301692 1.89703463,22.2224812 C1.89703463,22.7314405 2.32364755,23.1483208 2.84537286,23.1483208 L10.4328746,23.1483208 C10.954202,23.1483208 11.3812129,23.5648127 11.3812129,24.0745489 C11.3812129,24.5835082 10.954202,25 10.4328746,25 L2.84537286,25 C1.28019692,25 -3.97959811e-05,23.7505245 -3.97959811e-05,22.2224812 C-3.97959811e-05,17.1760144 3.46181261,12.9166861 8.20390174,11.5743547 C6.68648097,10.3703358 5.69078552,8.56489036 5.69078552,6.48126564 C5.69078552,2.91660839 8.67826983,0 12.3299491,0 C15.9812303,0 18.9687147,2.91660839 18.9687147,6.48126564 C18.9687147,8.51826814 17.9730192,10.3703358 16.4555984,11.5743547 C17.925662,12.0370802 19.2532559,12.7313628 20.4387782,13.6575909 L20.4387782,13.6575909 Z M12.3299491,11.3701407 C14.9377797,11.3701407 17.0720382,9.24680118 17.0720382,6.65191636 C17.0720382,4.05742747 14.9377797,1.93408794 12.3299491,1.93408794 C9.7213225,1.93408794 7.58746199,4.05742747 7.58746199,6.65191636 C7.58746199,9.24680118 9.67396528,11.3701407 12.3299491,11.3701407 L12.3299491,11.3701407 Z" id="Fill-1" fill="#FFFFFF" mask="url(#mask-2)"></path>
                    </g>
                </g>
                <path d="M28.2468448,29.2136428 L31.0044241,31.9693077 L33.7611043,29.2136428 C34.0479213,28.9367277 34.5037715,28.940324 34.786093,29.2226336 C35.0675153,29.5049431 35.0720109,29.9607742 34.7950841,30.2475791 L32.0375048,33.004143 L34.794185,35.760707 C35.0711118,36.048411 35.0675153,36.5033429 34.7851939,36.7856525 C34.5037715,37.067962 34.0479213,37.0715583 33.7611043,36.7955423 L31.003525,34.0380793 L28.2468448,36.7955423 C27.9609269,37.0715583 27.5050767,37.067962 27.2227552,36.7856525 C26.9404338,36.5033429 26.9368373,36.048411 27.2137641,35.760707 L29.9695451,33.004143 L27.2137641,30.2475791 C26.9287453,29.9625723 26.9287453,29.4995487 27.2137641,29.2145419 C27.4987829,28.9286361 27.961826,28.9286361 28.2468448,29.2136428 Z" id="Fill-3" fill="#FFFFFF"></path>
            </g>
        </g>
    </g>
</svg>