<?xml version="1.0" encoding="UTF-8"?>
<svg width="55px" height="58px" viewBox="0 0 55 58" version="1.1" xmlns="http://www.w3.org/2000/svg" xmlns:xlink="http://www.w3.org/1999/xlink">
    <title>编组 29</title>
    <defs>
        <linearGradient x1="50%" y1="0%" x2="50%" y2="100%" id="linearGradient-1">
            <stop stop-color="#FEB68F" offset="0%"></stop>
            <stop stop-color="#F97C37" offset="100%"></stop>
        </linearGradient>
        <linearGradient x1="50%" y1="0%" x2="50%" y2="100%" id="linearGradient-2">
            <stop stop-color="#FFFFFF" offset="0%"></stop>
            <stop stop-color="#FFA776" offset="100%"></stop>
        </linearGradient>
        <linearGradient x1="11.6210044%" y1="86.4281304%" x2="92.8789472%" y2="16.1232259%" id="linearGradient-3">
            <stop stop-color="#FFFFFF" offset="0%"></stop>
            <stop stop-color="#FDA575" stop-opacity="0.1" offset="100%"></stop>
            <stop stop-color="#FDA575" stop-opacity="0.1" offset="100%"></stop>
        </linearGradient>
        <path d="M44.2192705,14 C50.17335,14 55.0000852,18.8267351 55.0000852,24.7808146 L55.0007926,34.0275426 C54.8363975,34.0093434 54.6693325,34 54.5000852,34 C52.0148038,34 50.0000852,36.0147186 50.0000852,38.5 C50.0000852,40.9852814 52.0148038,43 54.5000852,43 C54.6693325,43 54.8363975,42.9906566 55.0007926,42.9724574 L55.0000852,51.2191854 C55.0000852,57.1732649 50.17335,62 44.2192705,62 L10.7808998,62 C4.82682028,62 8.51613636e-05,57.1732649 8.51613636e-05,51.2191854 L3.67651222e-15,42.9725262 C0.164194393,42.9906801 0.33105139,43 0.500085161,43 C2.98536654,43 5.00008516,40.9852814 5.00008516,38.5 C5.00008516,36.0147186 2.98536654,34 0.500085161,34 C0.33105139,34 0.164194393,34.0093199 4.25189551e-15,34.0274738 L8.51613636e-05,24.7808146 C8.51613636e-05,18.8267351 4.82682028,14 10.7808998,14 L44.2192705,14 Z" id="path-4"></path>
        <filter x="-4.5%" y="-5.2%" width="109.1%" height="110.4%" filterUnits="objectBoundingBox" id="filter-5">
            <feGaussianBlur stdDeviation="2" in="SourceAlpha" result="shadowBlurInner1"></feGaussianBlur>
            <feOffset dx="-1" dy="1" in="shadowBlurInner1" result="shadowOffsetInner1"></feOffset>
            <feComposite in="shadowOffsetInner1" in2="SourceAlpha" operator="arithmetic" k2="-1" k3="1" result="shadowInnerInner1"></feComposite>
            <feColorMatrix values="0 0 0 0 1   0 0 0 0 1   0 0 0 0 1  0 0 0 0.5 0" type="matrix" in="shadowInnerInner1"></feColorMatrix>
        </filter>
        <polygon id="path-6" points="0 0 16 0 16 21 0 21"></polygon>
        <linearGradient x1="27.9887449%" y1="-9.48595641%" x2="50%" y2="100%" id="linearGradient-8">
            <stop stop-color="#FFFFFF" offset="0%"></stop>
            <stop stop-color="#FFE1D1" offset="100%"></stop>
        </linearGradient>
    </defs>
    <g id="页面-1" stroke="none" stroke-width="1" fill="none" fill-rule="evenodd">
        <g id="1-1首页" transform="translate(-615.000000, -321.000000)">
            <g id="编组-30" transform="translate(614.999915, 317.000000)">
                <g id="编组-29" transform="translate(0.000000, 0.000000)">
                    <g id="编组-9" transform="translate(0.000000, 0.000000)">
                        <g id="编组-8" transform="translate(0.000000, 0.000000)">
                            <g id="编组-2" transform="translate(0.000000, 0.000000)">
                                <path d="M17.25715,9.13729548 L41.5557551,9.17498558 C47.4967718,9.18420082 52.3106208,13.9980511 52.3198345,19.9390678 L52.3408807,33.5097928 C52.3501146,39.4638652 47.5308709,44.2980801 41.5767985,44.307314 C41.5656422,44.3073313 41.5544859,44.3073313 41.5433296,44.3073139 L17.2448014,44.2695628 C11.3038192,44.2603327 6.48999664,39.4465241 6.48074928,33.5055419 L6.45962605,19.9348779 C6.45035832,13.9808056 11.2695746,9.1465633 17.2236469,9.13729557 C17.2348146,9.13727819 17.2459823,9.13727816 17.25715,9.13729548 Z" id="矩形" fill="url(#linearGradient-1)" transform="translate(29.400223, 26.722318) rotate(-330.000000) translate(-29.400223, -26.722318) "></path>
                                <g id="形状结合">
                                    <use fill-opacity="0.3" fill="url(#linearGradient-2)" fill-rule="evenodd" xlink:href="#path-4"></use>
                                    <use fill="black" fill-opacity="1" filter="url(#filter-5)" xlink:href="#path-4"></use>
                                    <path stroke="url(#linearGradient-3)" stroke-width="0.539040732" d="M44.2192705,14.2695204 C47.1218843,14.2695204 49.7497079,15.4460371 51.651878,17.3482072 C53.5540481,19.2503773 54.7305648,21.8782009 54.7305648,24.7808353 L54.7305648,24.7808353 L54.7312499,33.7359889 C53.1830185,33.7304796 51.9906384,34.2643264 51.127525,35.1274398 C50.2644115,35.9905532 49.7305648,37.1829333 49.7305648,38.5 C49.7305648,39.8170667 50.2644115,41.0094468 51.127525,41.8725602 C51.9906384,42.7356736 53.1830185,43.2695204 54.5000852,43.2695204 L54.5000852,43.2695204 L54.7305648,51.2191854 C54.7305648,54.1217991 53.5540481,56.7496227 51.651878,58.6517928 C49.7497079,60.5539629 47.1218843,61.7304796 44.2192705,61.7304796 L44.2192705,61.7304796 L10.7808998,61.7304796 C7.87828603,61.7304796 5.25046247,60.5539629 3.34829234,58.6517928 C1.44612221,56.7496227 0.269605527,54.1217991 0.269605527,51.2191826 L0.269605527,51.2191826 L0.269523376,43.2640399 C1.81715184,43.2695204 3.00953193,42.7356736 3.87264536,41.8725602 C4.73575878,41.0094468 5.26960553,39.8170667 5.26960553,38.5 C5.26960553,37.1829333 4.73575878,35.9905532 3.87264536,35.1274398 C3.00953193,34.2643264 1.81715184,33.7304796 0.500085161,33.7304796 L0.500085161,33.7304796 L0.269605527,24.7808146 C0.269605527,21.8782009 1.44612221,19.2503773 3.34829234,17.3482072 C5.25046247,15.4460371 7.87828603,14.2695204 10.7808998,14.2695204 L10.7808998,14.2695204 Z" stroke-linejoin="square"></path>
                                </g>
                                <g id="编组" transform="translate(20.000000, 28.000000)">
                                    <mask id="mask-7" fill="white">
                                        <use xlink:href="#path-6"></use>
                                    </mask>
                                    <g id="Clip-2"></g>
                                    <path d="M2.01101056,18.2807084 C0.829524188,17.9885441 0.00040385793,16.9403425 0,15.737583 L0,2.62289725 C0,1.17424111 1.18875582,0 2.65576975,0 C4.12258175,0 5.31133757,1.17424111 5.31133757,2.62289725 L5.31133757,13.6884445 L13.9238099,15.8171553 C14.8652027,16.0249609 15.6183977,16.7207706 15.8914057,17.6347561 C16.1644136,18.5485423 15.9140217,19.536915 15.2375597,20.216172 C14.5608957,20.895429 13.5649821,21.1590749 12.6350992,20.9048022 L2.01101056,18.2807084 Z" id="Fill-1" fill="url(#linearGradient-8)" mask="url(#mask-7)"></path>
                                </g>
                            </g>
                        </g>
                    </g>
                </g>
            </g>
        </g>
    </g>
</svg>