<?xml version="1.0" encoding="UTF-8"?>
<svg width="16px" height="16px" viewBox="0 0 16 16" version="1.1" xmlns="http://www.w3.org/2000/svg" xmlns:xlink="http://www.w3.org/1999/xlink">
    <title>编组</title>
    <defs>
        <filter color-interpolation-filters="auto" id="filter-1">
            <feColorMatrix in="SourceGraphic" type="matrix" values="0 0 0 0 0.600000 0 0 0 0 0.600000 0 0 0 0 0.600000 0 0 0 1.000000 0"></feColorMatrix>
        </filter>
        <polygon id="path-2" points="-4.14913698e-16 0 16 0 16 16 -4.14913698e-16 16"></polygon>
    </defs>
    <g id="采样-" stroke="none" stroke-width="1" fill="none" fill-rule="evenodd">
        <g id="2-8创建任务-已填写" transform="translate(-222.000000, -1162.000000)">
            <g id="编组" transform="translate(222.000000, 1162.000000)" filter="url(#filter-1)">
                <g>
                    <mask id="mask-3" fill="white">
                        <use xlink:href="#path-2"></use>
                    </mask>
                    <g id="Clip-2"></g>
                    <path d="M9.40205704,8.00044167 L15.7080899,14.3068077 C16.095061,14.6934387 16.09642,15.3209496 15.7080899,15.7092793 C15.3211188,16.0962501 14.6939469,16.097609 14.3056168,15.7092793 L7.99958392,9.40325307 L1.69321132,15.7092793 C1.30624018,16.0962501 0.679068332,16.097609 0.290738202,15.7092793 C-0.0962329433,15.3223086 -0.0975919289,14.6947976 0.290738202,14.3068077 L6.59813004,7.99908269 L0.292097187,1.69305644 C-0.0948739577,1.30642545 -0.0962329433,0.678574765 0.292097187,0.290584788 C0.679068332,-0.0963859515 1.30624018,-0.0977449357 1.69457031,0.290584788 L8.00060316,6.59661103 L14.3069758,0.290584788 C14.6936072,-0.0963859515 15.3211188,-0.0977449357 15.7094489,0.290584788 C16.09642,0.677215781 16.097779,1.30472672 15.7094489,1.69305644 L9.40205704,8.00044167 Z" id="Fill-1" fill="#231916" mask="url(#mask-3)"></path>
                </g>
            </g>
        </g>
    </g>
</svg>