<?xml version="1.0" encoding="UTF-8"?>
<svg width="32px" height="29px" viewBox="0 0 32 29" version="1.1" xmlns="http://www.w3.org/2000/svg" xmlns:xlink="http://www.w3.org/1999/xlink">
    <title>编组 20</title>
    <g id="页面-1" stroke="none" stroke-width="1" fill="none" fill-rule="evenodd">
        <g id="1-1首页备份" transform="translate(-382.000000, -1256.000000)">
            <g id="编组" transform="translate(382.000000, 1256.000000)">
                <path d="M28.7998655,2.71857113 L3.19986545,2.71857113 C2.81343817,2.71829902 2.48244544,3.03116344 2.4127486,3.46165836 L2.39983181,3.62476174 L2.39983181,25.3752383 C2.39983181,25.8128128 2.67592818,26.1880323 3.05589707,26.2667249 L3.19986545,26.2814287 L28.7998655,26.2814287 C29.1865618,26.2814287 29.5175546,25.9688366 29.5872514,25.5380694 L29.5998993,25.3752383 L29.5998993,3.62476174 C29.5998993,3.18718722 29.3240718,2.81196774 28.9441029,2.73300283 L28.7998655,2.71857113 Z M28.7998655,0 C29.6486061,0 30.462633,0.381754505 31.0627255,1.06166962 C31.662818,1.74131245 32,2.66329587 32,3.62476174 L32,25.3752383 C32,26.3364318 31.662818,27.2586875 31.0627255,27.9383304 C30.462633,28.6182455 29.6486061,29 28.7998655,29 L3.19986545,29 C2.35112475,29 1.53736703,28.6182455 0.937274524,27.9383304 C0.336912921,27.2586875 0,26.3364318 0,25.3752383 L0,3.62476174 C0,2.66329587 0.336912921,1.74131245 0.937274524,1.06166962 C1.53736703,0.381754505 2.35112475,0 3.19986545,0 L28.7998655,0 Z" id="Fill-1" fill="#000000"></path>
                <path d="M25.0288088,7.46986282 C25.3371972,7.98994207 25.2187933,8.66005465 24.7521742,9.04044769 L24.6176244,9.13738392 L17.439926,13.492435 C16.6318194,13.9839235 15.6334592,14.0307578 14.7839112,13.6171451 L14.5600202,13.492435 L7.38232183,9.13738392 C6.83147458,8.81335549 6.62695875,8.1097509 6.91651011,7.53548539 C7.20659967,6.96094758 7.88957491,6.71615635 8.47190682,6.97755744 L8.6161443,7.05379942 L15.7935736,11.4104842 C15.8872203,11.4676657 16.0002422,11.4834587 16.1054602,11.4540511 L16.2063726,11.4104842 L23.3824564,7.05379942 C23.6553236,6.88742852 23.9825489,6.83787123 24.2917445,6.91601927 C24.6006711,6.9941673 24.8665416,7.19321334 25.0304234,7.46986282 L25.0288088,7.46986282 Z" id="Fill-3" fill="#00C378"></path>
            </g>
        </g>
    </g>
</svg>