<?xml version="1.0" encoding="UTF-8"?>
<svg width="51px" height="58px" viewBox="0 0 51 58" version="1.1" xmlns="http://www.w3.org/2000/svg" xmlns:xlink="http://www.w3.org/1999/xlink">
    <title>编组 15</title>
    <defs>
        <linearGradient x1="100%" y1="97.6473923%" x2="34.3571901%" y2="2.35260771%" id="linearGradient-1">
            <stop stop-color="#D7FFF1" offset="0%"></stop>
            <stop stop-color="#D7FFF1" offset="0%"></stop>
            <stop stop-color="#00BF7E" offset="100%"></stop>
        </linearGradient>
        <linearGradient x1="50%" y1="100%" x2="50%" y2="0%" id="linearGradient-2">
            <stop stop-color="#FFFFFF" stop-opacity="0" offset="0.0409746503%"></stop>
            <stop stop-color="#00BF7E" offset="100%"></stop>
        </linearGradient>
        <linearGradient x1="81.6644671%" y1="96.6181173%" x2="43.805115%" y2="2.77764379%" id="linearGradient-3">
            <stop stop-color="#FFFFFF" stop-opacity="0.535046984" offset="0%"></stop>
            <stop stop-color="#62DCB2" stop-opacity="0.510626093" offset="99.9426355%"></stop>
        </linearGradient>
        <path d="M21.2126902,0 C26.3025976,0 30.4287829,4.22406411 30.4287829,9.43471126 C30.4287829,9.93870955 30.3901797,10.4334777 30.315835,10.916086 L37.9962836,10.9099231 C40.7577066,10.9078698 42.9979467,13.144781 43,15.9062039 C43.000002,15.9088465 43.0000018,15.9114891 42.9999996,15.9141317 L42.9746841,45.9796917 C42.9723615,48.738019 40.7367311,50.9734293 37.9784036,50.9754803 L5.00371637,50.9999986 C2.24229338,51.0020519 0.00205325809,48.7651407 -4.17443857e-14,46.0037177 L3.9028614e-07,45.9957899 L0.0253159188,15.93023 C0.0276384603,13.1719027 2.2632689,10.9364924 5.02159639,10.9344414 L12.1117087,10.9300616 C12.0359497,10.443031 11.9965974,9.94357574 11.9965974,9.43471126 C11.9965974,4.22406411 16.1227827,0 21.2126902,0 Z" id="path-4"></path>
        <filter x="-4.7%" y="-3.9%" width="109.3%" height="107.8%" filterUnits="objectBoundingBox" id="filter-5">
            <feGaussianBlur stdDeviation="1.5" in="SourceAlpha" result="shadowBlurInner1"></feGaussianBlur>
            <feOffset dx="0" dy="1" in="shadowBlurInner1" result="shadowOffsetInner1"></feOffset>
            <feComposite in="shadowOffsetInner1" in2="SourceAlpha" operator="arithmetic" k2="-1" k3="1" result="shadowInnerInner1"></feComposite>
            <feColorMatrix values="0 0 0 0 1   0 0 0 0 1   0 0 0 0 1  0 0 0 0.5 0" type="matrix" in="shadowInnerInner1"></feColorMatrix>
        </filter>
        <linearGradient x1="50%" y1="0%" x2="50%" y2="100%" id="linearGradient-6">
            <stop stop-color="#FFFFFF" offset="0%"></stop>
            <stop stop-color="#BCFCE7" offset="100%"></stop>
        </linearGradient>
        <linearGradient x1="50%" y1="0%" x2="50%" y2="100%" id="linearGradient-7">
            <stop stop-color="#FFFFFF" offset="0%"></stop>
            <stop stop-color="#BCFCE7" offset="100%"></stop>
        </linearGradient>
        <linearGradient x1="50%" y1="0%" x2="50%" y2="100%" id="linearGradient-8">
            <stop stop-color="#FFFFFF" offset="0%"></stop>
            <stop stop-color="#BCFCE7" offset="100%"></stop>
        </linearGradient>
        <linearGradient x1="50%" y1="0%" x2="50%" y2="100%" id="linearGradient-9">
            <stop stop-color="#FFFFFF" offset="0%"></stop>
            <stop stop-color="#BCFCE7" offset="100%"></stop>
        </linearGradient>
    </defs>
    <g id="页面-1" stroke="none" stroke-width="1" fill="none" fill-rule="evenodd">
        <g id="1-1首页备份" transform="translate(-638.000000, -329.000000)">
            <g id="编组-13" transform="translate(638.000000, 329.000000)">
                <g id="矩形备份-21" transform="translate(9.000000, 16.999768)" fill="url(#linearGradient-1)">
                    <path d="M4.75785349,0.0289945218 L37.2601111,0.00369019576 C39.8737396,0.00165537999 41.9941536,2.11877032 41.9961884,4.73239877 C41.9961904,4.73489543 41.9961903,4.7373921 41.9961883,4.73988877 L41.970855,36.2424182 C41.9687555,38.853122 39.8528504,40.9689729 37.2421465,40.9710055 L4.73988887,40.9963098 C2.12626042,40.9983446 0.00584638907,38.8812297 0.00381157331,36.2676012 C0.00380962955,36.2651046 0.00380966154,36.2626079 0.00381166928,36.2601112 L0.0291450114,4.75758181 C0.0312444572,2.14687797 2.14714959,0.0310270607 4.75785349,0.0289945218 Z" id="矩形备份-20"></path>
                </g>
                <g id="编组-12">
                    <g id="形状结合备份">
                        <use fill-opacity="0.3" fill="url(#linearGradient-2)" fill-rule="evenodd" xlink:href="#path-4"></use>
                        <use fill="black" fill-opacity="1" filter="url(#filter-5)" xlink:href="#path-4"></use>
                        <path stroke="url(#linearGradient-3)" stroke-width="0.5" d="M21.2126902,0.25 C23.6879506,0.25 25.9285988,1.27756255 27.5506153,2.93805553 C29.1747283,4.60069472 30.1787829,6.89774066 30.1787829,9.43471126 C30.1787829,10.0266493 30.1241467,10.6055213 30.019715,11.1663237 L30.019715,11.1663237 L37.9964695,11.159923 C39.3081454,11.1589477 40.4960404,11.6897265 41.3562603,12.548668 C42.2164801,13.4076096 42.7490248,14.5947139 42.7500001,15.9059935 L42.7500001,15.9059935 L42.7246842,45.9794812 C42.723581,47.2896867 42.1920671,48.4756993 41.3332777,49.3344042 C40.4744883,50.1931091 39.2884233,50.7245061 37.9782177,50.7254803 L37.9782177,50.7254803 L5.00353048,50.7499987 C3.69185456,50.750974 2.50395958,50.2201952 1.64373974,49.3612537 C0.783519907,48.5023121 0.250975228,47.3152078 0.249999911,46.0039282 L0.249999911,46.0039282 L0.27531583,15.9304405 C0.276419037,14.620235 0.80793287,13.4342224 1.66672229,12.5755175 C2.52551171,11.7168126 3.71157672,11.1854156 5.02175083,11.1844414 L5.02175083,11.1844414 L12.4081998,11.1798785 C12.3021178,10.6148506 12.2465974,10.0314197 12.2465974,9.43471126 C12.2465974,6.89774066 13.2506521,4.60069472 14.874765,2.93805553 C16.4967815,1.27756255 18.7374297,0.25 21.2126902,0.25 Z" stroke-linejoin="square"></path>
                    </g>
                    <g id="编组-10" transform="translate(12.000000, 21.000000)">
                        <path d="M1.67854308,14.3473669 L5.8357656,14.3473669 C5.66840901,13.3926542 6.66704063,13.5019363 6.66704063,13.5019363 C8.35374089,13.3216638 8.33129315,15.1919371 8.33129315,15.1919371 C7.75464665,17.3801611 4.17321554,16.8793564 4.17321554,16.8793564 C-0.49370314,17.1478291 0.0164167054,16.036077 0.0164167054,16.036077 C-0.186105957,13.9932756 1.67854308,14.3473669 1.67854308,14.3473669 L1.67854308,14.3473669 Z" id="路径" fill="url(#linearGradient-6)"></path>
                        <path d="M5.79339685,10.750522 L5.37818302,11.4815076 C4.91805831,12.287786 3.90205549,12.5635728 3.10721759,12.0980481 L0.945563566,10.8335593 C0.151573043,10.3663136 -0.12085807,9.3350173 0.337148203,8.52744818 L0.753209405,7.79732309 C1.21291043,6.98932373 2.23018431,6.71310669 3.02629327,7.17949184 L5.18667623,8.44527146 C5.97981938,8.9125171 6.25097943,9.94338317 5.79339685,10.750522 L5.79339685,10.750522 Z" id="路径" fill="url(#linearGradient-7)"></path>
                        <path d="M15.3971232,4.22112995 C14.2493535,4.22156019 13.3185119,3.27717329 13.3180881,2.11164066 C13.3176646,0.946108029 14.2476588,0.000430391553 15.3954285,0 C16.5431981,-0.000430097653 17.4740397,0.943956806 17.474464,2.10991968 C17.4748871,2.66923767 17.2562643,3.20618293 16.8668954,3.60243821 C16.4771028,3.99869349 15.9487644,4.22112995 15.3971232,4.22156019 L15.3971232,4.22112995 Z" id="路径" fill="url(#linearGradient-8)"></path>
                        <path d="M14.9806383,10.9716678 C14.3518859,10.6722175 14.0082753,9.9726398 14.1502107,9.28209722 C14.292146,8.59112438 11.8745847,9.58800113 11.6563856,11.8140867 C11.6563856,11.8140867 15.7585287,13.7196401 14.981062,16.0317746 C14.981062,16.0317746 13.3138514,20.4379095 11.6563856,21.939033 C11.6563856,21.939033 7.6677907,22.9350492 11.6563856,16.8754842 C11.6563856,16.8754842 13.5621323,14.4217992 7.49831566,12.6573661 C7.49831566,12.6573661 3.91391875,12.0507212 9.16256047,7.59553837 C9.73284396,7.01599889 9.52015279,5.25156577 8.33086176,5.90553757 C8.33086176,5.90553757 4.0689884,9.27220159 4.17279186,5.90553757 C4.17279186,5.90553757 8.37280683,1.40216731 12.4872369,4.21553677 C12.4872369,4.21553677 15.2831512,5.75624269 16.6444594,8.43580608 C16.6444594,8.43580608 19.6467096,8.7571988 19.9729491,10.1253766 C19.9729491,10.1253766 20.6703388,11.7951559 14.9831804,10.9690863 L14.9806383,10.9716678 Z" id="路径" fill="url(#linearGradient-9)"></path>
                    </g>
                </g>
            </g>
        </g>
    </g>
</svg>