<?xml version="1.0" encoding="UTF-8"?>
<svg width="32px" height="31px" viewBox="0 0 32 31" version="1.1" xmlns="http://www.w3.org/2000/svg" xmlns:xlink="http://www.w3.org/1999/xlink">
    <title>编组</title>
    <defs>
        <polygon id="path-1" points="0 0 21.6659152 0 21.6659152 31 0 31"></polygon>
    </defs>
    <g id="我的" stroke="none" stroke-width="1" fill="none" fill-rule="evenodd">
        <g id="6-1我的" transform="translate(-81.000000, -1363.000000)">
            <g id="编组" transform="translate(81.000000, 1363.000000)">
                <path d="M27.1530072,14.2121325 L23.7175547,10.9011722 C23.1467629,10.370102 23.1155478,9.47875805 23.6453138,8.908547 C24.1786473,8.33833594 25.0731849,8.30720117 25.6439766,8.83649225 C25.6555709,8.84983572 25.6725162,8.86140006 25.6850023,8.87385397 L31.569508,14.5537254 C32.1313811,15.0945808 32.144759,15.9903726 31.6007232,16.5499089 L25.71265,22.6105141 C25.1445339,23.1460321 24.2508881,23.1220139 23.7148791,22.5580298 C23.2091933,22.02607 23.1967072,21.1969956 23.6854476,20.6490236 L27.2029515,17.032053 L13.1855559,17.032053 C12.4051766,17.032053 11.7710627,16.3995724 11.7710627,15.6203136 C11.7710627,14.8419444 12.4051766,14.2094638 13.1855559,14.2094638 L27.1530072,14.2121325 Z" id="Fill-1" fill="#00BF7E"></path>
                <g>
                    <mask id="mask-2" fill="white">
                        <use xlink:href="#path-1"></use>
                    </mask>
                    <g id="Clip-4"></g>
                    <path d="M2.8262216,28.1845273 L20.2505302,28.1845273 C21.0318013,28.2183308 21.6347001,28.8757192 21.5999174,29.654978 C21.5687023,30.3844211 20.9809652,30.9697548 20.2505302,31 L1.414404,31 C0.634024721,31 0.00347826194,30.3710777 -8.91862035e-05,29.5927084 L-8.91862035e-05,1.41040504 C-8.91862035e-05,0.632035812 0.634024721,-0.000444782415 1.414404,-0.000444782415 L20.2505302,-0.000444782415 C21.0318013,-0.000444782415 21.6659152,0.632035812 21.6659152,1.41040504 C21.6659152,2.18966383 21.0318013,2.82214443 20.2505302,2.82214443 L2.82354602,2.82214443 L2.8262216,28.1845273 Z" id="Fill-3" fill="#333333" mask="url(#mask-2)"></path>
                </g>
            </g>
        </g>
    </g>
</svg>
