<?xml version="1.0" encoding="UTF-8"?>
<svg width="32px" height="32px" viewBox="0 0 32 32" version="1.1" xmlns="http://www.w3.org/2000/svg" xmlns:xlink="http://www.w3.org/1999/xlink">
    <title>编组</title>
    <defs>
        <polygon id="path-1" points="0 0 32 0 32 32 0 32"></polygon>
    </defs>
    <g id="页面-1" stroke="none" stroke-width="1" fill="none" fill-rule="evenodd">
        <g id="1-1首页备份" transform="translate(-333.000000, -1256.000000)">
            <g id="编组" transform="translate(333.000000, 1256.000000)">
                <path d="M22.8859492,14.1066321 C22.8859492,14.7820876 23.3356287,15.231864 24.0109389,15.231864 C24.686249,15.231864 25.1359286,14.7820876 25.1359286,14.1066321 C25.1253851,10.3813448 22.1083672,7.36367758 18.3838816,7.35313183 C17.7085715,7.35313183 17.2588919,7.8029082 17.2588919,8.47836369 C17.2588919,9.15381918 17.710153,9.60359555 18.3838816,9.60359555 C20.8673992,9.61045029 22.8790959,11.62258 22.8859492,14.1066321" id="Fill-1" fill="#00C378"></path>
                <path d="M27.3880167,14.1066321 C27.3880167,14.7820876 27.8376962,15.231864 28.5130064,15.231864 C29.1883165,15.231864 29.6379961,14.7820876 29.6379961,14.1066321 C29.6379961,7.91680234 24.5723794,2.85009524 18.3838816,2.85009524 C17.7085715,2.85009524 17.2588919,3.30145348 17.2588919,3.97743625 C17.2588919,4.65236445 17.710153,5.10266811 18.3838816,5.10266811 C23.3356287,5.10266811 27.3880167,9.15592833 27.3880167,14.1066321" id="Fill-3" fill="#00C378"></path>
                <g>
                    <mask id="mask-2" fill="white">
                        <use xlink:href="#path-1"></use>
                    </mask>
                    <g id="Clip-6"></g>
                    <path d="M10.6203983,7.1272418 C10.958317,7.57860003 10.958317,8.25405552 10.5065287,8.59204691 L8.03091877,11.180502 C7.68034793,11.5395849 7.59072832,12.0790002 7.80686974,12.5319403 C9.13323998,14.9690638 10.8006919,17.2047635 12.7586168,19.1715465 C14.7249765,21.1298928 16.9601951,22.7971764 19.3967941,24.1243594 C19.8501639,24.3400201 20.3894631,24.2493266 20.7479415,23.8986803 L23.3358396,21.3102252 C23.7871007,20.8604488 24.3490684,20.8604488 24.7998023,21.1979129 L29.1885274,24.7998149 C29.1885274,24.7998149 29.3002883,24.7998149 29.3002883,24.9121272 C29.5164297,25.1172421 29.6387341,25.4019774 29.6387341,25.7004222 C29.6387341,25.9983397 29.5164297,26.2836024 29.3002883,26.4887173 L26.2611291,29.5285306 C24.7998023,30.9896447 17.8221248,27.2759577 11.1818388,20.7465547 C4.54366155,14.2187335 0.943061894,7.12882366 2.40544307,5.66454584 L5.55530881,2.51242023 C6.00656991,2.17442884 6.79364096,2.17442884 7.13155961,2.73809934 L10.6203983,7.12882366 L10.6203983,7.1272418 Z M12.1950676,10.1670551 C13.433927,8.9300383 13.5462151,7.01545682 12.4212254,5.66401855 L8.93185944,1.2748761 C7.80686974,-0.188347151 5.66865126,-0.414026268 4.20416138,0.711732879 C4.09240045,0.825099725 3.98011235,0.825099725 3.98011235,0.937411996 L0.940953197,3.97722534 C-1.98486351,6.90314454 2.17981252,14.782404 9.72103919,22.3231448 C17.2591028,29.8649401 25.0222698,33.9176731 27.9480865,31.1035388 L30.9872457,28.0637255 C32.3378659,26.7128145 32.3378659,24.5736085 30.9872457,23.3365917 L30.7631967,23.1109125 L26.3734172,19.6213228 C25.0238513,18.496091 23.1117906,18.6078759 21.8729313,19.8470019 L19.9603433,21.7615834 C17.9344129,20.5224574 16.1335859,19.1715465 14.5573351,17.5960109 C12.9821387,16.0194208 11.6336271,14.2187335 10.3947678,12.1918397 L12.1950676,10.1670551 Z" id="Fill-5" fill="#000000" mask="url(#mask-2)"></path>
                </g>
            </g>
        </g>
    </g>
</svg>