<?xml version="1.0" encoding="UTF-8"?>
<svg width="32px" height="32px" viewBox="0 0 32 32" version="1.1" xmlns="http://www.w3.org/2000/svg" xmlns:xlink="http://www.w3.org/1999/xlink">
    <title>编组</title>
    <defs>
        <polygon id="path-1" points="0 0 26.8387097 0 26.8387097 26.8387097 0 26.8387097"></polygon>
        <polygon id="path-3" points="0 0 10.3225806 0 10.3225806 10.3225806 0 10.3225806"></polygon>
    </defs>
    <g id="页面-1" stroke="none" stroke-width="1" fill="none" fill-rule="evenodd">
        <g id="1-2待销售审核" transform="translate(-61.000000, -210.000000)">
            <g id="编组" transform="translate(61.000000, 210.000000)">
                <g>
                    <mask id="mask-2" fill="white">
                        <use xlink:href="#path-1"></use>
                    </mask>
                    <g id="Clip-2"></g>
                    <path d="M13.4191942,24.528315 C19.5543195,24.528315 24.528398,19.5540578 24.528398,13.4197833 C24.528398,7.28336651 19.5543195,2.31018043 13.4191942,2.31018043 C7.28406889,2.31018043 2.30999035,7.28336651 2.30999035,13.4197833 C2.30999035,19.5540578 7.28406889,24.528315 13.4191942,24.528315 M13.4191942,26.8387097 C6.00841696,26.8387097 -0.000321322903,20.8308267 -0.000321322903,13.4197833 C-0.000321322903,6.00766877 6.00841696,-0.000214222962 13.4191942,-0.000214222962 C20.8299714,-0.000214222962 26.8387097,6.00766877 26.8387097,13.4197833 C26.8387097,20.8308267 20.8299714,26.8387097 13.4191942,26.8387097" id="Fill-1" fill="#000000" mask="url(#mask-2)"></path>
                </g>
                <path d="M20.6451613,12.7080489 C20.6451613,13.1002551 20.3270114,13.4193548 19.9347583,13.4193548 C19.5425052,13.4193548 19.2243553,13.1002551 19.2243553,12.7080489 C19.2243553,9.32440599 16.4815475,6.58192638 13.0965117,6.58192638 C12.7042586,6.58192638 12.3870968,6.26480247 12.3870968,5.87160835 C12.3870968,5.47940215 12.7042586,5.16129032 13.0965117,5.16129032 C17.2660538,5.16129032 20.6451613,8.53999359 20.6451613,12.7080489" id="Fill-3" fill="#00C378"></path>
                <g transform="translate(21.677419, 21.677419)">
                    <mask id="mask-4" fill="white">
                        <use xlink:href="#path-3"></use>
                    </mask>
                    <g id="Clip-6"></g>
                    <path d="M0.340895691,1.98747872 C-0.113631897,1.53292023 -0.113631897,0.795477359 0.340895691,0.340918868 C0.79542328,-0.113639623 1.53281602,-0.113639623 1.98734361,0.340918868 L9.98206283,8.33510192 C10.4365904,8.79074013 10.4365904,9.52710329 9.98206283,9.98166178 C9.52753524,10.4362203 8.7901425,10.4362203 8.33561491,9.98166178 L0.340895691,1.98747872 Z" id="Fill-5" fill="#000000" mask="url(#mask-4)"></path>
                </g>
            </g>
        </g>
    </g>
</svg>