<?xml version="1.0" encoding="UTF-8"?>
<svg width="180px" height="145px" viewBox="0 0 180 145" version="1.1" xmlns="http://www.w3.org/2000/svg" xmlns:xlink="http://www.w3.org/1999/xlink">
    <title>编组 5</title>
    <defs>
        <polygon id="path-1" points="0 0 180 0 180 9 0 9"></polygon>
        <polygon id="path-3" points="0 0 28 0 28 43 0 43"></polygon>
    </defs>
    <g id="页面-1" stroke="none" stroke-width="1" fill="none" fill-rule="evenodd">
        <g id="1-4无电子单" transform="translate(-285.000000, -579.000000)">
            <g id="编组" transform="translate(285.000000, 579.000000)">
                <path d="M2.34501567,29.3177948 C0.830417864,29.554303 -0.204193051,30.9643497 0.0341509541,32.4676902 L11.4866216,104.673047 C11.725378,106.175979 13.1463701,107.20262 14.6609679,106.966112 L67.6549843,98.6895554 C69.1695821,98.4526381 70.2041931,97.0425914 69.965849,95.53966 L60.3999248,35.2288612 L42.7987561,23 L2.34501567,29.3177948 Z" id="Fill-1" fill="#F5F5F5"></path>
                <path d="M46.971207,36.9783918 L60,34.9240251 L43,23 L44.9666854,35.5165158 C45.1172336,36.4744755 46.0145488,37.1292076 46.971207,36.9783918" id="Fill-3" fill="#D6D6D6"></path>
                <path d="M43,23 L44.9662871,35.5165158 C45.1168353,36.4744755 46.0145488,37.1292076 46.971207,36.9783918 L60,34.9240251" id="Stroke-5" stroke="#262626" stroke-width="0.274" stroke-linecap="round" stroke-linejoin="round"></path>
                <path d="M32.9989742,81 L32.0564946,74.8350247 L38.2290162,73.835388 L39.1714959,79.9999516 L32.9989742,81 Z M31.7928723,71.8879903 C31.5096484,70.037345 31.4188407,68.5243034 31.5204493,67.3505125 C31.6224579,66.1771334 31.9972896,65.0552182 32.6461444,63.9855905 C33.0169757,63.3470252 33.4606132,62.7768041 33.9774569,62.2749272 C34.4939006,61.7738737 34.9615401,61.25594 35.3799754,60.7215378 C35.7976107,60.1883708 36.1312389,59.6111506 36.38046,58.9919358 C36.629281,58.3731327 36.6844857,57.6094069 36.545674,56.6987 C36.3104541,55.1621909 35.7344054,54.1534965 34.8179279,53.6750872 C33.9010505,53.1966779 32.878564,53.0488733 31.7512688,53.2316734 C30.1351322,53.4935222 29.0934442,54.1370281 28.6254046,55.1605441 C28.156965,56.1852952 27.9665489,57.4941276 28.0545564,59.0870413 L22.1560579,60.0426248 C21.921238,58.5057039 21.9512406,57.0696525 22.2472656,55.7357057 C22.5424905,54.4021706 23.0729354,53.2230274 23.8382,52.198688 C24.6030647,51.175172 25.5815474,50.3249868 26.7752482,49.6493674 C27.967749,48.973748 29.3266639,48.5126306 30.8511927,48.2656034 C34.1430709,47.7324364 36.8472995,48.0021078 38.9638783,49.0733823 C41.0796571,50.1458921 42.3757667,52.2336835 42.8506068,55.3400505 C43.0042198,56.344216 43.0390227,57.2384544 42.9566158,58.0231775 C42.8730087,58.808724 42.6801924,59.539101 42.3777668,60.2151321 C42.0749413,60.8907515 41.6745074,61.5424915 41.1772654,62.1695289 C40.6796233,62.7973897 40.1083751,63.4520117 39.4635206,64.1350419 C38.8742708,64.7777243 38.4086314,65.3594734 38.0666025,65.880289 C37.7245736,66.4023398 37.4849533,66.9318014 37.3489418,67.4674387 C37.2121303,68.0043112 37.1553255,68.5522998 37.1785274,69.1105813 C37.2009293,69.6696861 37.2661348,70.2946649 37.3713437,70.9842825 L31.7928723,71.8879903 Z" id="Fill-7" fill="#D6D6D6"></path>
                <path d="M62.5673569,75 C69.4967359,81.9381743 77.5560289,91.3008299 85.0450697,103.397095 C90.2551383,111.812448 96.5071764,129.911643 99.3898014,136.957702 C92.7483997,140.002515 85.141809,135.264971 78.5,138.309369 L60,76.806639 L62.5673569,75 Z" id="Fill-9" fill="#5FBC9C"></path>
                <path d="M50.1271412,71 L63.1559005,75.0185814 C66.7263456,80.6057296 68.7878476,85.5545457 69.9984919,88.9967013 C75.6354245,105.027159 73.8273517,119.696908 73.3163385,123.842172 C73.3163385,123.842172 73.3076139,123.913098 71.6653089,136 L12.0932181,136 C11.896291,131.61941 11.9340977,125.56038 12.9822979,118.452632 C14.2253479,110.024353 15.3794899,102.199967 20.5465397,93.6068775 C22.6475102,90.113065 29.9574917,78.931389 43.9750408,73.0781666 C46.4748509,72.0343686 48.6364783,71.3902968 50.1271412,71" id="Fill-11" fill="#5FBC9C"></path>
                <path d="M20.4662862,96 C27.6284042,98.2299246 36.7488625,100.418046 47.4670115,101.483441 C57.4515522,102.476376 66.2528006,102.239887 73.386198,101.590139 C73.5909354,103.22287 73.7956728,104.8556 74,106.488728 C66.3816334,107.091098 57.3218988,107.273043 47.1851385,106.413083 C35.8293903,105.449609 25.9913252,103.421934 18,101.244165 C18.8222322,99.4959771 19.6444643,97.7481876 20.4662862,96" id="Fill-13" fill-opacity="0.55039882" fill="#FFFFFF"></path>
                <polygon id="Fill-15" fill="#4753DC" points="75.0189355 90 78 90.6639469 67.145534 136 61 136"></polygon>
                <polygon id="Fill-17" fill="#E8A600" points="50.6070397 127.920037 53.2925831 127.179233 59.4477444 130 61 126.663449 53.1888345 124 50 125.325072"></polygon>
                <path d="M12,129.306148 C17.923904,130.724295 25.0055009,131.992449 33.051842,132.607578 C40.1059343,133.147311 46.4869978,133.075905 52,132.721269 L52,126.218937 C38.8494749,124.812358 25.6989498,123.406179 12.548008,122 L12,129.306148 Z" id="Fill-19" fill="#5FBC9C"></path>
                <path d="M54.6607812,79.9026851 L54.6607812,79.9026851 C50.9536298,79.2783249 48.4635212,75.8223828 49.0990089,72.1825397 L51.5757389,58 L65,60.2593545 L62.5236881,74.4418942 C61.8882003,78.0817373 58.3679326,80.5270452 54.6607812,79.9026851" id="Fill-21" fill="#F7A99C"></path>
                <path d="M64,69.8440873 L56.0155253,64 C55.9714377,64.7495333 55.8463129,68.2735979 58.544894,71.179612 C60.2680894,73.0349809 62.3053565,73.7374401 63.2576488,74 L64,69.8440873 Z" id="Fill-23" fill="#FF7769"></path>
                <path d="M52.8653257,53.793549 C52.8612323,53.5790531 52.3552863,53.1707164 52.2017833,53.0336773 C51.9426702,52.8028956 51.6528565,52.6046855 51.3413476,52.4454024 C50.7363411,52.1363694 50.04087,51.9699364 49.3556325,52.0044941 C47.9937537,52.072815 46.6396523,52.9431124 46.1852833,54.2138021 C45.9216675,54.951827 45.9601456,55.7681032 46.1701377,56.5224138 C46.4849212,57.6564617 47.181211,58.6832617 48.1100066,59.4363807 C48.8795684,60.0604049 49.80468,60.4969439 50.7797312,60.7217674 C50.9749871,60.7666526 53.0016364,61.0649609 53,60.9871068 C52.9553808,58.589519 52.9103532,56.191534 52.8653257,53.793549" id="Fill-25" fill="#F7A99C"></path>
                <path d="M51.0053063,52.7358142 C50.9753961,53.8198223 50.9263765,59.5552624 55.31487,64.3736228 C56.1232767,65.2611723 61.4975611,71.1619001 67.6166929,69.7957136 C75.4793411,68.0398913 76.7899902,56.0218802 76.8527186,55.3697528 C77.0641672,53.1644137 77.6877121,46.6693886 72.9216022,42.3214624 C69.0316123,38.7729049 64.0972574,38.9759257 63.396029,39.0157095 C62.656582,39.0575441 57.9324294,39.401244 54.386407,43.3012941 C51.1681508,46.8404183 51.0543258,50.9619456 51.0053063,52.7358142" id="Fill-27" fill="#F7A99C"></path>
                <path d="M72.0026687,54.9195315 C71.9536889,56.023174 72.5847921,56.9539396 73.4118149,56.9983528 C74.2388376,57.0427659 74.9488288,56.1836344 74.9973752,55.0799918 C75.0459216,53.9763493 74.4152517,53.0460612 73.588229,53.0016481 C72.7612063,52.957235 72.0512151,53.8158889 72.0026687,54.9195315" id="Fill-29" fill="#262626"></path>
                <path d="M69.7900753,56 L70.9165942,58.2951372 C71.1235637,58.7173808 70.9307702,59.2291767 70.4993475,59.4010592 L69,60" id="Stroke-31" stroke="#262626" stroke-width="1.705" stroke-linecap="round" stroke-linejoin="round"></path>
                <path d="M60.0023999,58.9027896 C59.9487959,60.005926 60.7996529,60.9435706 61.902789,60.9976001 C63.0059251,61.0512041 63.943995,60.2003468 63.997599,59.0972104 C64.051203,57.994074 63.2007714,57.0560039 62.0972099,57.0023999 C60.9940738,56.9487959 60.0560039,57.7996532 60.0023999,58.9027896" id="Fill-33" fill="#FF7769"></path>
                <path d="M50.9284596,58 C50.9747242,57.7964397 51.2625433,56.4133561 50.2269282,55.2185457 C49.4155185,54.2824097 48.3047235,54.053505 48,54" id="Stroke-35" stroke="#262626" stroke-width="1.705" stroke-linecap="round" stroke-linejoin="round"></path>
                <path d="M50,55.111935 C49.9396395,55.0817307 49.2068058,54.7370463 48.5833502,55.4323375 C48.0704882,56.0038503 48.0085072,56.8578621 48,57" id="Stroke-37" stroke="#262626" stroke-width="1.705" stroke-linecap="round" stroke-linejoin="round"></path>
                <path d="M75.0160487,58.002401 C75.3828834,58.0211285 75.7170015,58.1509441 76,58.3514134 C75.7848884,59.4031322 75.4712182,60.6685146 75.0185024,61.9892283 C74.955114,61.9926333 74.8933615,62.0024227 74.8287462,61.9994433 C73.7683199,61.9458146 72.9504052,61.007312 73.0023428,59.9036669 C73.0538714,58.8000219 73.9556223,57.9487723 75.0160487,58.002401" id="Fill-39" fill="#FF7769"></path>
                <polyline id="Stroke-41" stroke="#262626" stroke-width="1.705" stroke-linecap="round" stroke-linejoin="round" points="64.6034975 53 66 54.3847833 64 55"></polyline>
                <path d="M64,63.2589672 L70,64 C69.983816,63.8670296 69.7210392,61.9458849 68.2968484,61.2473287 C66.9007666,60.5626237 64.9335605,61.3207394 64,63.2589672" id="Fill-43" fill="#FFFFFF"></path>
                <path d="M50.8819275,51.8991786 C51.20163,52.023343 51.9555674,52.3650008 52.5554215,53.1696027 C53.107897,53.9113001 53.2405571,54.6583423 53.2796959,55 C59.2996602,54.429337 62.7747764,52.7416054 64.8676739,51.221208 C64.8676739,51.221208 65.0205213,51.1102001 69.4337336,47.764339 C70.1448243,48.5298825 71.2584271,49.5552668 72.834692,50.4355186 C74.2634653,51.2339534 75.5867698,51.6409824 76.5553529,51.8597091 C79.7190065,51.1250011 81.9247886,48.7662883 81.9981224,46.3031458 C82.0751641,43.7096717 79.7647371,41.7456538 78.1246141,40.9295399 C75.4491659,39.5982671 74.2177347,41.1515558 70.2947878,40.1261715 C67.1323703,39.299368 67.2501988,38.1115832 64.2851233,37.3945542 C63.38905,37.1774721 59.6659172,36.2770745 55.9246569,38.242737 C52.7692431,39.9008665 50.2697138,43.2463164 50.0204612,47.1044585 C49.8840933,49.216076 50.4584041,50.9190198 50.8819275,51.8991786" id="Fill-45" fill="#262626"></path>
                <path d="M50.2172344,71 C44.8723667,72.207298 34.8740713,75.2567734 25.5605792,83.5106156 C25.5605792,83.5106156 16.1740856,91.8293839 9.77235603,107.255102 C9.20535043,108.621839 8.57073553,110.064597 7.87017046,113.097225 C7.32722216,115.448128 7.08250138,117.615758 7.00286344,119.50889 C6.94313497,120.924116 7.82288543,122.211133 9.1667758,122.694381 C10.3472425,123.118867 11.7060649,123.592664 13.2125495,124.090294 C16.0027811,125.011999 22.1917281,127.523162 29.2023562,128.487193 C43.8217265,130.497439 51.9373311,131 51.9373311,131 L53,105.998904 L33.6765986,103.575268 L50.2172344,71 Z" id="Fill-47" fill="#5FBC9C"></path>
                <path d="M65,83 C67.4861949,91.5795904 69.0259961,98.7623668 70,104" id="Stroke-49" stroke="#262626" stroke-linecap="round" stroke-linejoin="round"></path>
                <polygon id="Fill-51" fill="#5FBC9C" points="40 82 29 106 35.6576511 106"></polygon>
                <polygon id="Fill-53" fill="#4753DC" points="64.6557694 136 59 134.368274 71.3442306 90 77 91.6321344"></polygon>
                <path d="M52.6062756,111.801287 C52.6062756,111.801287 63.4655373,110.713597 64.623159,111.072725 C65.7807806,111.431852 69.7430932,113.687634 70.3030476,114.331671 C70.863002,114.975297 71.0630443,115.578928 70.9831093,116.182558 C70.9031744,116.785777 70.1030053,117.469809 70.1030053,117.469809 C70.730187,118.451946 70.751503,119.124846 70.6178682,119.579631 C70.3792932,120.392718 69.431552,121.241265 69.4229436,121.251985 C69.4930404,121.503086 69.5717455,121.863862 69.5930615,122.302979 C69.6135577,122.719418 69.6545499,123.559306 69.2425776,124.325389 C68.630973,125.46297 67.3721005,125.787875 67.0966324,125.852196 C67.0966324,125.852196 67.5832106,126.763827 66.9433213,127.528261 C66.303432,128.292695 64.3829443,129.25834 62.1029543,128.936321 C59.8229644,128.614302 53.903271,125.677374 53.903271,125.677374 L52,126.276469 L52.6062756,111.801287 Z" id="Fill-55" fill="#F7A99C"></path>
                <path d="M82.5292865,91.227424 C67.8777345,91.227424 56,79.3120752 56,64.613712 C56,49.9153487 67.8777345,38 82.5292865,38 C97.1816618,38 109.058985,49.9153487 109.058985,64.613712 C109.058985,79.3120752 97.1816618,91.227424 82.5292865,91.227424 Z" id="Fill-57" fill="#CDEBF5" opacity="0.513927641"></path>
                <path d="M81.999794,89.1014692 C68.1367834,89.1014692 56.8984972,77.8631059 56.8984972,64 C56.8984972,50.1368941 68.1367834,38.8985308 81.999794,38.8985308 C95.8628047,38.8985308 107.101091,50.1368941 107.101091,64 C107.101091,77.8631059 95.8628047,89.1014692 81.999794,89.1014692 M81.999794,34 C65.4313234,34 52,47.4314156 52,64 C52,80.5685844 65.4313234,94 81.999794,94 C98.5682647,94 112,80.5685844 112,64 C112,47.4314156 98.5682647,34 81.999794,34" id="Fill-59" fill="#4753DC"></path>
                <path d="M70,118 C70,118 65.906993,117.288155 63.8384615,116.390817 C61.7699301,115.493478 61,115 61,115" id="Stroke-61" stroke="#262626" stroke-width="1.5" stroke-linecap="round" stroke-linejoin="round"></path>
                <path d="M69,121 C69,121 64.3990867,120.582031 62.5330048,119.608369 C60.6669229,118.635077 60,118 60,118" id="Stroke-63" stroke="#262626" stroke-width="1.5" stroke-linecap="round" stroke-linejoin="round"></path>
                <path d="M67,125 C65.1135677,124.92292 63.6962112,124.481648 62.7074121,124.056688 C61.0594137,123.349511 59,122 59,122" id="Stroke-65" stroke="#262626" stroke-width="1.5" stroke-linecap="round" stroke-linejoin="round"></path>
                <polygon id="Fill-67" fill="#FF7769" points="52.6370881 112.064701 52 126 54 125.423249 53.3590351 112"></polygon>
                <path d="M39.0691809,84 C39.0691809,84 29.1988505,105.887341 29.477483,106.451045 C29.7557092,107.014748 52,106.075379 52,106.075379 L50.9593932,131 C50.9593932,131 33.591576,129.891848 26.7208091,128.17247 C19.849636,126.452683 12,123.757886 12,123.757886" id="Stroke-69" stroke="#262626" stroke-linecap="round" stroke-linejoin="round"></path>
                <path d="M84.126883,46.6726623 C83.9766124,47.0251012 83.9530953,47.4375386 84.0926038,47.8277388 C84.372418,48.613174 85.2038887,49.0109264 85.9500599,48.7163882 C87.305684,48.1810168 88.7737121,47.9552881 90.1959017,48.0635371 C91.7851029,48.1847929 93.0020156,48.6874379 93.5859584,48.9765216 C94.2787178,49.3193104 95.7196414,50.0325795 96.7946541,51.5891846 C98.2909824,53.7571032 98.1654248,56.2938239 98.0426573,57.2840093 C97.9390224,58.1155972 98.4954621,58.8779561 99.2858774,58.9870443 C100.075894,59.0957129 100.80094,58.5087344 100.903379,57.6784052 C101.112642,56.0001249 101.159277,52.7459393 99.1288307,49.8039139 C97.61895,47.6158559 95.6530759,46.6428728 94.8136333,46.2274985 C93.8789263,45.7651322 92.3554934,45.1831885 90.4047658,45.0342411 C88.5700297,44.8945243 86.6790915,45.1840277 84.936431,45.8725422 C84.5609538,46.0206504 84.278748,46.3160277 84.126883,46.6726623" id="Fill-71" fill="#FFFFFF"></path>
                <path d="M31,81 C27.3208579,84.2528098 22.5955874,89.1100853 18.2824406,95.8408931 C13.8539825,102.751355 11.4012211,109.23131 10,114" id="Stroke-73" stroke="#FFFFFF" stroke-linecap="round" stroke-linejoin="round"></path>
                <path d="M70,39 C67.5822445,40.3744145 61.4775843,44.2710431 57.4720733,52.1301577 C53.4779266,59.9667744 53.8785183,67.2168107 54.1743961,70" id="Stroke-89" stroke="#262626" stroke-linecap="round" stroke-linejoin="round"></path>
                <line x1="73" y1="122" x2="72" y2="115" id="Stroke-91" stroke="#262626" stroke-linecap="round" stroke-linejoin="round"></line>
                <path d="M167.356402,125 L103.643598,125 C102.183215,125 101,123.814827 101,122.352948 L101,75.6470523 C101,74.1847611 102.183215,73 103.643598,73 L167.356402,73 C168.816373,73 170,74.1847611 170,75.6470523 L170,122.352948 C170,123.814827 168.816373,125 167.356402,125" id="Fill-93" fill="#F5F5F5"></path>
                <path d="M170,78 L170,74.6399342 C170,73.1819864 168.816373,72 167.356402,72 L103.643598,72 C102.183215,72 101,73.1819864 101,74.6399342 L101,78 L170,78 Z" id="Fill-95" fill="#D6D6D6"></path>
                <path d="M143.374763,90.4028691 L143.374763,87.0129637 C143.374763,85.9013765 142.485924,85 141.389797,85 L121.985784,85 C120.88884,85 120,85.9013765 120,87.0129637 L120,90.4028691 L120,112.986622 C120,114.098209 120.88884,115 121.985784,115 L153.014625,115 C154.11116,115 155,114.098209 155,112.986622 L155,92.4162474 C155,91.3046603 154.11116,90.4028691 153.014625,90.4028691 L143.374763,90.4028691 Z" id="Fill-103" fill="#E6E6E6"></path>
                <polygon id="Fill-105" fill="#D6D6D6" points="141.553385 95 137.499576 99.0539412 133.446191 95 131 97.4462707 135.053809 101.499788 131 105.553729 133.446191 108 137.499576 103.946483 141.553385 108 143.999576 105.553729 139.945767 101.499788 144 97.4462707"></polygon>
                <path d="M104,73 L167.370601,73 C168.822731,73 170,74.1766977 170,75.6281219 L170,122" id="Stroke-107" stroke="#262626" stroke-width="0.274" stroke-linecap="round" stroke-linejoin="round"></path>
                <g transform="translate(0.000000, 136.000000)">
                    <mask id="mask-2" fill="white">
                        <use xlink:href="#path-1"></use>
                    </mask>
                    <g id="Clip-110"></g>
                    <path d="M175.600432,9 L4.3998572,9 C1.9697767,9 -0.000123815243,6.98555347 -0.000123815243,4.5 C-0.000123815243,2.01486867 1.9697767,0 4.3998572,0 L175.600432,0 C178.030512,0 180,2.01486867 180,4.5 C180,6.98555347 178.030512,9 175.600432,9" id="Fill-109" fill="#2E3650" mask="url(#mask-2)"></path>
                </g>
                <g transform="translate(152.000000, 54.000000)">
                    <mask id="mask-4" fill="white">
                        <use xlink:href="#path-3"></use>
                    </mask>
                    <g id="Clip-112"></g>
                    <path d="M13.7209515,43 L12.7151966,34.9224045 L20.9707678,33.8772879 L21.9769335,41.9548834 L13.7209515,43 Z M12.4830677,31.0683558 C12.1810947,28.6434202 12.121111,26.6671018 12.3039382,25.1410576 C12.4867653,23.6145992 13.0307275,22.167674 13.9374681,20.800282 C14.4571903,19.9829951 15.0705857,19.2584969 15.7792978,18.6255448 C16.4863665,17.9938354 17.1297538,17.3381003 17.7082272,16.6587538 C18.285468,15.9810643 18.7526017,15.2424821 19.1096282,14.4459069 C19.4654222,13.6493317 19.5701884,12.6551661 19.4218724,11.4625816 C19.1708445,9.44898201 18.4448769,8.10975809 17.2443803,7.4478095 C16.0434728,6.78544666 14.6880866,6.5501608 13.1806869,6.74112344 C11.018807,7.01451899 9.60631299,7.81026571 8.94238331,9.12546395 C8.27763193,10.4414907 7.97155049,12.1398569 8.02413898,14.2209769 L0.135454697,15.2201133 C-0.115573171,13.2060995 -0.0177914483,11.3354112 0.429621561,9.60846274 C0.87703457,7.88192848 1.63052902,6.36624016 2.69010492,5.06305475 C3.74926997,3.76028357 5.08657882,2.69238402 6.70244233,1.86142727 C8.31666245,1.03088475 10.1437016,0.486579082 12.183149,0.228096025 C16.5862024,-0.329465185 20.1741343,0.135307235 22.9481771,1.62075634 C25.7209874,3.10786239 27.3615018,5.88489832 27.8688985,9.95476376 C28.0324159,11.2707905 28.0426871,12.4381066 27.9013555,13.4579548 C27.7583805,14.4782173 27.4720198,15.4226746 27.0426841,16.2909126 C26.6121158,17.159979 26.0533631,17.9930069 25.3660151,18.7895821 C24.6778454,19.5869858 23.8914832,20.4166998 23.0052849,21.2807954 C22.1950935,22.0935258 21.5521171,22.8325222 21.0755339,23.4977847 C20.5997724,24.1638757 20.2591798,24.8440506 20.0566319,25.5370669 C19.8528515,26.2313259 19.7554806,26.9438112 19.7632867,27.6724518 C19.7710928,28.4027493 19.8318983,29.2200362 19.9444705,30.1234842 L12.4830677,31.0683558 Z" id="Fill-111" fill="#FF7129" mask="url(#mask-4)"></path>
                </g>
                <path d="M152,21.5 C152,33.3742076 142.374301,43 130.499791,43 C118.626117,43 109,33.3742076 109,21.5 C109,9.6257924 118.626117,0 130.499791,0 C142.374301,0 152,9.6257924 152,21.5" id="Fill-113" fill="#F5F5F5"></path>
                <path d="M147,21 C147,30.3888623 139.388953,38 130.000204,38 C120.611454,38 113,30.3888623 113,21 C113,11.6111377 120.611454,4 130.000204,4 C139.388953,4 147,11.6111377 147,21" id="Fill-115" fill="#E6E6E6"></path>
                <polygon id="Fill-117" fill="#D6D6D6" points="130 23 131 23 131 9 130 9"></polygon>
                <polygon id="Fill-119" fill="#D6D6D6" points="137 26.1096914 136.461158 27 129 22.889935 129.53845 22"></polygon>
            </g>
        </g>
    </g>
</svg>